<?xml version="1.0" standalone="no"?>
<!DOCTYPE svg PUBLIC "-//W3C//DTD SVG 20010904//EN"
 "http://www.w3.org/TR/2001/REC-SVG-20010904/DTD/svg10.dtd">
<svg version="1.0" xmlns="http://www.w3.org/2000/svg"
 width="640.000000pt" height="640.000000pt" viewBox="0 0 640.000000 640.000000"
 preserveAspectRatio="xMidYMid meet">
<metadata>
Created by potrace 1.14, written by Peter Selinger 2001-2017
</metadata>
<g transform="translate(0.000000,640.000000) scale(0.100000,-0.100000)"
fill="#000000" stroke="none">
<path d="M290 6391 c0 -5 11 -60 24 -123 49 -227 60 -332 60 -543 -1 -189 -7
-245 -39 -365 -6 -24 -6 -24 9 -6 35 43 61 278 52 476 -8 187 -70 549 -97 566
-5 3 -9 1 -9 -5z"/>
<path d="M969 6303 c-194 -201 -330 -397 -412 -595 -25 -59 -13 -45 34 40 107
195 329 488 459 606 40 35 47 46 33 46 -12 0 -58 -39 -114 -97z"/>
<path d="M1965 6303 c-232 -250 -420 -498 -530 -698 -54 -99 -38 -79 52 65
135 216 316 448 493 634 51 53 88 96 84 96 -5 0 -49 -43 -99 -97z"/>
<path d="M3645 6383 c80 -197 128 -499 141 -882 5 -147 2 -240 -15 -441 -29
-352 -25 -330 -69 -330 -21 -1 -73 -7 -117 -15 -43 -8 -80 -13 -81 -12 -2 1 6
34 17 72 24 87 52 247 47 272 -2 10 -13 -32 -25 -92 -12 -61 -32 -144 -45
-184 l-23 -74 -68 -28 c-38 -15 -75 -36 -82 -46 -49 -64 -87 -124 -82 -129 3
-3 21 5 39 19 40 30 138 80 138 71 0 -15 -104 -201 -155 -278 -78 -119 -200
-260 -301 -350 -114 -101 -297 -238 -398 -300 l-80 -48 71 76 c96 103 241 296
319 424 89 146 87 153 -14 61 -85 -77 -269 -200 -370 -246 -63 -29 -264 -103
-280 -103 -3 0 16 22 41 49 41 44 120 155 129 181 2 6 35 19 73 29 109 31 228
84 302 137 38 26 127 107 199 179 189 189 299 342 382 535 50 117 92 219 99
244 11 34 -17 7 -58 -57 -21 -33 -39 -57 -39 -53 0 3 11 63 26 133 33 166 29
208 -10 93 -70 -203 -178 -438 -291 -630 -50 -85 -302 -338 -407 -409 -70 -47
-228 -127 -228 -116 0 3 44 37 98 77 163 120 301 267 400 423 77 123 177 368
222 543 28 108 40 215 38 337 l-1 130 -7 -135 c-9 -161 -35 -294 -91 -461
-116 -345 -277 -585 -531 -790 -54 -43 -101 -79 -103 -79 -3 0 2 17 11 38 129
302 175 492 190 771 6 108 -4 425 -12 396 -108 -397 -204 -636 -346 -861 l-51
-81 -121 -6 c-67 -3 -145 -12 -173 -20 -29 -8 -53 -12 -53 -9 0 3 38 121 84
261 90 276 124 413 52 214 -24 -67 -89 -209 -143 -314 l-98 -192 -90 -37
c-187 -77 -342 -167 -467 -274 -66 -56 -158 -159 -158 -177 0 -5 40 24 89 64
108 87 309 210 445 272 55 24 102 43 104 40 6 -5 -85 -135 -162 -231 -86 -108
-252 -264 -362 -342 l-89 -64 -14 34 c-7 18 -17 62 -22 98 -5 36 -14 81 -20
100 -5 19 -13 98 -16 175 -5 128 -3 151 22 260 34 150 87 309 171 512 36 87
76 188 89 225 13 36 36 90 50 118 15 29 22 49 17 46 -15 -9 -196 -378 -248
-506 -26 -63 -64 -168 -84 -233 l-37 -119 -6 63 c-10 89 -9 227 3 349 5 58 12
139 14 180 3 46 22 135 49 230 95 332 231 641 393 900 9 14 0 8 -19 -13 -45
-49 -211 -366 -272 -521 -80 -200 -174 -492 -194 -599 -62 -329 -65 -625 -10
-917 52 -271 140 -527 231 -667 39 -61 60 -84 38 -42 -11 20 -10 20 37 13 65
-9 90 -20 224 -102 172 -103 172 -103 68 5 -53 55 -104 114 -114 132 -28 56 0
156 62 212 31 29 135 100 140 96 1 -2 -2 -19 -7 -38 -6 -18 -10 -72 -9 -119
l0 -85 15 40 c19 51 92 127 118 123 24 -4 40 -57 33 -109 -4 -31 -2 -36 13
-32 23 6 30 -6 19 -34 -9 -23 -39 -32 -39 -12 0 6 -18 -7 -40 -30 -41 -42 -66
-50 -89 -28 -24 21 -4 -40 44 -141 33 -69 60 -109 104 -153 33 -32 64 -59 69
-59 5 0 -21 31 -57 68 -69 70 -111 140 -111 183 0 24 16 58 23 49 2 -3 18 -29
36 -58 18 -29 47 -62 65 -74 l31 -23 -33 42 c-36 46 -62 102 -62 132 0 23 36
37 72 27 39 -9 100 -66 95 -87 -4 -14 0 -19 14 -19 11 0 32 -20 53 -51 l35
-52 14 35 c8 19 18 44 21 55 4 12 15 23 25 26 14 3 17 11 14 31 -8 38 71 116
115 116 26 0 33 -5 38 -27 6 -23 -4 -105 -20 -158 -4 -11 5 3 19 30 13 28 25
61 25 75 0 14 3 35 6 48 6 22 8 22 25 6 16 -15 19 -32 19 -128 0 -61 -4 -127
-10 -145 -6 -20 -6 -31 0 -25 14 14 30 130 30 217 0 123 -39 277 -100 398 -19
36 -19 39 -3 39 10 0 49 -11 87 -25 39 -13 71 -23 73 -21 2 2 -18 17 -44 34
-47 31 -47 31 -20 37 38 10 33 21 -10 23 -34 2 -124 23 -163 39 -8 3 21 12 64
19 150 27 413 159 564 283 36 30 61 48 57 40 -21 -34 -164 -232 -223 -309 -36
-47 -106 -127 -156 -177 -49 -51 -86 -93 -83 -93 31 0 284 152 407 243 128 96
340 310 420 425 36 51 66 89 68 84 3 -11 -60 -256 -93 -357 -41 -125 -155
-393 -196 -462 -21 -35 -36 -63 -33 -63 8 0 67 43 144 106 124 102 220 210
322 364 33 51 128 273 128 302 0 6 -30 -48 -68 -122 -73 -146 -122 -223 -216
-340 -62 -78 -170 -187 -219 -222 l-28 -20 20 39 c30 60 146 340 174 423 39
115 77 268 84 339 5 51 16 82 55 153 27 49 54 102 60 118 6 19 20 32 42 40 42
14 181 40 212 40 24 0 25 -2 19 -47 -4 -27 -9 -57 -11 -68 -4 -16 -3 -17 5 -5
6 8 16 41 22 73 l12 57 76 1 c242 4 476 -31 691 -101 47 -15 86 -27 88 -25 7
6 -88 57 -165 89 -152 64 -379 105 -582 106 l-93 0 6 33 c31 164 61 558 53
680 -3 42 -2 77 1 77 4 0 42 -26 86 -58 66 -48 82 -65 96 -104 10 -25 26 -59
37 -75 11 -15 23 -50 25 -76 17 -153 192 -335 444 -460 l70 -35 41 -89 c85
-184 96 -224 95 -363 0 -69 -5 -165 -11 -214 -6 -50 -9 -91 -7 -93 2 -2 12 29
22 69 16 60 19 111 19 283 0 116 -3 238 -7 272 l-8 62 76 -34 c42 -19 87 -35
101 -35 13 0 57 -20 96 -44 85 -51 168 -94 256 -131 79 -33 267 -193 379 -323
30 -34 62 -62 71 -62 26 0 41 -21 41 -56 l0 -32 -77 0 c-43 0 -123 -9 -179
-20 -83 -17 -124 -19 -240 -15 -114 5 -150 3 -199 -12 -146 -42 -309 -140
-350 -209 -34 -58 -42 -117 -19 -140 15 -16 31 -17 148 -11 100 5 151 3 216
-8 191 -35 347 -50 414 -38 34 6 107 11 160 11 l98 0 -6 -27 c-3 -16 -15 -77
-26 -138 -21 -109 -29 -136 -31 -99 0 10 -7 -1 -15 -26 -18 -57 -17 -76 2 -30
l14 35 -6 -35 c-3 -19 -12 -61 -20 -93 -8 -32 -14 -62 -14 -65 0 -4 -5 0 -11
8 -8 12 -9 10 -4 -7 11 -41 -88 -359 -108 -346 -6 4 -7 1 -2 -6 9 -16 -23
-103 -36 -96 -5 4 -6 -2 -2 -11 4 -12 3 -15 -5 -10 -8 4 -10 2 -6 -8 7 -18
-23 -77 -37 -73 -7 1 -14 -5 -16 -13 -4 -13 -3 -13 6 0 9 13 11 13 11 0 0 -34
-196 -344 -231 -366 -6 -3 5 16 24 42 19 27 48 75 66 107 18 31 37 57 42 57 6
0 7 5 3 12 -4 6 -3 8 4 4 6 -4 10 1 9 12 0 9 9 31 21 47 12 17 26 55 32 85 5
30 20 109 34 175 57 269 60 714 4 770 -6 7 -8 -30 -6 -107 2 -64 0 -114 -4
-111 -5 2 -8 14 -8 26 0 26 -48 132 -56 124 -3 -3 0 -49 7 -104 20 -162 16
-411 -9 -522 -36 -158 -142 -419 -164 -405 -7 4 -8 3 -4 -5 4 -6 3 -17 -2 -24
-5 -7 -11 -20 -13 -30 -2 -10 -7 -17 -10 -15 -3 2 -13 -3 -22 -11 -15 -11 -17
-11 -17 2 0 9 4 18 9 21 4 3 14 27 21 53 8 27 29 82 47 123 103 231 153 365
153 412 0 15 -3 28 -7 28 -24 0 -223 -185 -223 -208 0 -5 -11 -15 -25 -22 -14
-7 -25 -19 -25 -25 0 -7 -9 -20 -21 -31 -12 -10 -28 -32 -36 -47 -8 -16 -17
-26 -20 -23 -3 3 -1 11 4 18 22 28 65 199 60 241 -2 23 0 85 6 137 5 52 7 112
3 133 -6 33 -9 36 -26 27 -10 -6 -33 -37 -51 -70 -22 -42 -67 -94 -148 -173
-172 -166 -329 -268 -486 -315 -70 -21 -185 -39 -185 -29 0 3 30 24 68 48 85
54 224 192 289 289 102 152 176 328 192 453 4 39 8 73 6 75 -1 1 -19 -23 -39
-53 -58 -83 -176 -177 -331 -261 l-70 -38 64 64 c77 77 157 197 213 318 38 83
118 309 118 335 0 26 -38 -52 -69 -143 -72 -212 -184 -400 -318 -538 -44 -44
-69 -62 -96 -67 -20 -4 -37 -11 -37 -16 0 -9 15 -7 95 13 98 25 269 131 372
231 l73 70 -16 -52 c-8 -28 -30 -87 -48 -131 -116 -275 -306 -486 -531 -591
-59 -28 -71 -30 -102 -21 -44 14 -40 -5 8 -33 29 -17 51 -20 159 -19 126 0
228 19 323 59 20 8 37 11 37 6 0 -6 -116 -126 -257 -269 -246 -247 -315 -308
-511 -450 -96 -69 -317 -182 -372 -189 -43 -6 -345 74 -580 153 -223 76 -694
290 -827 377 -106 69 -247 206 -230 224 4 3 37 -2 74 -11 105 -27 345 -56 379
-47 l29 8 -35 8 c-158 34 -350 120 -504 225 -80 54 -82 56 -132 160 -28 58
-51 106 -50 106 0 1 44 -6 96 -16 116 -22 299 -36 285 -22 -5 5 -43 20 -84 33
-53 16 -94 38 -148 80 -89 68 -174 148 -210 198 -35 48 -105 121 -116 121 -11
0 46 -79 103 -144 79 -90 86 -103 21 -41 -34 33 -82 86 -107 118 -24 33 -44
52 -44 44 0 -29 122 -177 189 -231 95 -76 127 -96 190 -123 l56 -24 -57 6
c-78 9 -301 68 -332 89 -14 9 -44 43 -66 76 -22 33 -43 60 -46 60 -12 0 56
-115 118 -199 162 -217 374 -375 638 -477 l35 -14 -50 6 c-167 19 -437 98
-494 145 -20 16 -81 64 -136 107 -200 156 -283 249 -412 459 -111 181 -242
459 -259 548 -11 60 -27 41 -19 -22 24 -204 80 -403 159 -568 28 -58 57 -144
81 -242 l38 -152 66 -76 c73 -84 209 -209 286 -262 70 -49 32 -34 -82 33 -53
32 -126 82 -162 112 -37 32 -61 47 -57 36 5 -10 14 -37 21 -59 7 -22 31 -85
54 -139 22 -54 38 -103 34 -109 -3 -6 -1 -7 4 -4 6 4 26 -21 44 -56 43 -79 44
-81 29 -72 -9 5 -11 4 -6 -4 4 -6 11 -9 16 -6 11 7 33 -32 25 -45 -3 -5 0 -12
6 -16 8 -5 10 -2 4 7 -4 8 4 1 19 -16 27 -31 34 -51 14 -39 -7 4 -8 3 -4 -5 4
-6 11 -9 16 -6 4 3 20 -12 36 -33 17 -23 20 -31 8 -20 -37 33 -48 16 -14 -20
22 -24 46 -30 34 -9 -4 6 9 -4 29 -22 46 -43 49 -56 4 -15 l-32 29 29 -32 c16
-18 32 -31 36 -30 4 1 26 -18 51 -43 55 -57 139 -121 210 -160 l54 -30 -47 0
c-139 0 -462 99 -466 143 0 5 -4 12 -8 15 -4 4 -4 1 0 -5 10 -17 0 -16 -29 3
-14 9 -23 20 -20 24 3 5 0 12 -6 16 -8 4 -9 3 -5 -4 4 -7 3 -12 -2 -12 -11 0
-30 21 -30 33 0 5 -4 12 -8 15 -4 4 -4 1 0 -5 4 -7 3 -13 -2 -13 -12 0 -33 25
-27 32 3 3 -2 11 -12 19 -11 9 -14 10 -9 2 15 -25 -11 -12 -40 19 l-29 33 30
-25 30 -25 -24 27 c-13 15 -28 25 -33 22 -13 -8 -174 159 -248 258 -121 161
-217 348 -319 622 -61 164 -124 381 -150 521 -18 96 -19 98 -20 44 -4 -208
188 -764 365 -1059 l27 -45 -33 30 c-18 17 -59 65 -90 107 -155 207 -268 473
-375 883 -63 243 -63 244 -64 163 -1 -36 3 -68 8 -70 5 -1 27 -73 50 -158 80
-295 173 -545 252 -674 l31 -50 -22 -85 c-77 -296 -190 -573 -321 -784 -28
-44 -48 -87 -47 -96 7 -35 184 270 234 403 10 27 19 45 21 40 6 -18 -115 -343
-203 -546 -62 -142 -68 -194 -9 -78 146 289 316 787 360 1058 l7 43 50 -67 50
-66 -12 -77 c-47 -303 -153 -672 -300 -1051 -39 -102 -78 -203 -86 -225 -8
-23 -37 -69 -64 -102 -67 -83 -63 -103 7 -28 74 80 206 281 287 435 36 69 66
120 66 113 1 -61 -246 -596 -354 -767 -70 -111 -68 -138 2 -34 97 144 251 450
324 647 12 31 23 51 25 44 6 -17 -49 -176 -113 -326 -132 -308 -159 -369 -225
-493 l-69 -131 0 -81 0 -82 95 0 95 0 24 48 c27 54 96 122 124 122 21 0 42
-31 37 -56 -2 -11 -6 -40 -9 -67 -5 -42 -4 -47 14 -47 11 0 20 5 20 10 0 6 -5
10 -11 10 -8 0 -10 17 -6 55 7 65 14 80 31 66 17 -14 26 -4 26 30 0 15 5 31
11 34 7 5 9 -26 7 -99 l-3 -106 75 0 75 0 -6 147 c-3 82 -2 159 3 173 5 14 39
56 76 93 186 189 400 287 626 287 141 0 253 -21 461 -85 219 -67 347 -95 482
-102 l102 -6 -122 -49 c-256 -102 -554 -263 -744 -403 l-68 -50 38 -3 c33 -3
50 5 110 46 77 52 206 126 327 187 90 45 80 48 252 -63 223 -143 219 -142 413
-93 127 33 186 38 248 20 49 -13 69 -50 42 -79 -25 -28 -9 -25 31 5 22 17 45
25 72 25 36 0 39 -2 34 -25 -4 -24 -2 -25 49 -25 50 0 56 3 94 43 40 43 41 44
175 70 74 15 155 27 180 27 47 0 231 -36 337 -67 l62 -17 123 32 c68 17 211
59 318 92 231 71 383 104 449 98 88 -9 391 -170 465 -247 28 -29 35 -31 100
-31 l71 0 -69 63 c-285 257 -664 495 -1003 627 -73 28 -135 55 -138 59 -2 5
22 11 55 14 95 10 233 49 544 152 394 131 470 149 621 150 99 0 133 -4 195
-23 122 -39 236 -103 321 -180 l38 -33 -34 -57 c-47 -81 -148 -320 -185 -442
-18 -57 -43 -154 -55 -214 l-22 -111 185 -3 c102 -1 186 -1 188 1 2 1 8 52 14
112 7 70 17 119 28 135 9 14 15 30 14 37 -1 6 13 28 32 48 39 41 58 41 107 1
24 -19 56 -97 79 -191 4 -16 11 -38 15 -47 7 -17 5 -17 -21 -3 -55 28 -105 20
-173 -30 -34 -25 -61 -49 -61 -55 0 -6 58 -10 155 -10 85 0 155 1 155 3 0 2
-13 40 -30 85 -16 46 -30 91 -30 102 0 11 -4 20 -8 20 -8 0 -72 192 -72 215 0
4 12 -2 26 -16 14 -13 28 -22 31 -21 2 2 8 0 11 -4 4 -4 1 -4 -5 0 -23 13 -14
-10 15 -37 16 -15 32 -24 37 -20 4 5 5 0 2 -9 -6 -16 18 -46 29 -35 8 8 -27
58 -37 52 -8 -6 -31 29 -35 54 -2 7 -13 25 -26 40 -13 14 -45 50 -72 79 -27
31 -45 59 -42 67 3 8 1 17 -4 20 -6 4 -10 3 -10 -2 -1 -4 -12 -21 -26 -38 -14
-16 -21 -21 -15 -10 6 11 20 31 31 45 l21 25 57 -61 c31 -34 81 -101 110 -150
l52 -88 0 138 0 138 -62 66 c-127 137 -245 320 -311 482 -45 114 -70 190 -64
197 3 3 19 -21 35 -53 67 -133 249 -380 356 -484 l46 -44 0 152 0 153 -90 146
c-189 308 -348 686 -414 985 l-17 77 80 80 c85 87 142 170 171 254 68 195 67
432 -6 766 -18 82 -14 91 39 91 16 0 75 7 133 16 l104 17 0 622 0 622 -100 46
-101 46 8 83 c4 46 8 214 7 373 -1 257 -4 303 -24 405 -12 63 -25 144 -29 180
-12 104 -69 191 -171 263 -23 16 -23 18 -16 141 6 103 4 126 -7 126 -10 0 -16
-36 -25 -142 -18 -226 -53 -383 -122 -563 l-12 -30 -19 38 c-25 48 -43 47 -58
-2 -6 -22 -25 -54 -43 -71 l-31 -31 -23 56 c-12 31 -44 84 -70 117 -44 56 -46
61 -29 71 11 6 64 51 118 101 55 49 95 80 88 69 -20 -39 -11 -49 18 -18 15 17
40 41 56 55 l28 25 -23 -40 c-25 -43 -99 -156 -126 -193 -33 -44 -3 -35 45 15
79 82 177 267 168 317 -2 17 -7 12 -21 -21 -16 -37 -61 -81 -72 -70 -2 2 9 21
26 42 37 47 94 159 88 176 -2 7 -16 -12 -31 -42 -15 -30 -35 -65 -45 -78 l-19
-23 3 33 c1 19 13 66 28 104 33 89 33 127 0 55 -57 -125 -144 -267 -239 -390
-53 -67 -116 -130 -130 -127 -5 1 -13 -31 -16 -70 -8 -90 -29 -177 -39 -166
-4 4 -15 42 -25 83 -10 41 -27 102 -38 134 -18 55 -19 76 -14 260 4 111 9 224
11 251 4 33 0 25 -9 -25 -7 -41 -17 -146 -21 -232 l-7 -157 -43 96 c-46 102
-117 228 -135 239 -6 4 -15 1 -19 -5 -4 -8 -17 1 -36 26 -48 64 -116 133 -130
133 -8 0 22 -42 66 -92 98 -114 130 -173 130 -242 0 -65 -10 -127 -20 -121 -4
2 -13 -7 -20 -21 -8 -13 -18 -23 -24 -21 -6 2 -25 29 -43 60 -55 98 -195 288
-269 364 -53 55 -78 73 -98 73 -25 0 -24 -3 42 -84 37 -47 125 -170 194 -273
110 -165 131 -191 167 -208 29 -13 41 -24 41 -39 0 -12 19 -44 43 -71 49 -58
140 -173 152 -195 5 -8 -13 4 -39 28 -27 23 -52 42 -56 42 -11 0 -174 -172
-232 -246 -59 -74 -138 -192 -138 -205 0 -4 35 -28 78 -53 l77 -46 -50 6 c-48
6 -142 42 -305 116 l-76 35 -43 114 c-24 63 -59 154 -78 202 -78 203 -210 427
-394 667 -113 147 -175 217 -185 208 -4 -4 11 -28 34 -52 39 -42 188 -239 227
-299 10 -16 -10 -1 -46 33 -73 70 -166 136 -176 126 -4 -3 22 -37 58 -74 68
-70 133 -147 164 -194 l17 -28 -57 26 c-67 31 -195 43 -285 26 -30 -6 -56 -9
-58 -8 -1 2 -11 54 -23 117 -30 168 -80 329 -101 329 -6 0 -7 -8 -3 -17z
m1569 -265 c54 -97 152 -327 166 -388 6 -30 21 -83 31 -118 14 -47 16 -69 9
-83 -11 -19 -30 -26 -30 -11 0 4 -24 47 -54 94 -67 104 -87 165 -126 372 -17
89 -33 169 -36 179 -10 34 6 16 40 -45z m606 29 c0 -2 -12 -14 -27 -28 l-26
-24 19 27 c16 23 34 36 34 25z m170 -42 c10 -13 9 -15 -8 -15 -15 0 -20 5 -16
15 4 8 7 15 9 15 1 0 8 -7 15 -15z m70 -64 c30 -20 65 -90 75 -146 l7 -40 -26
37 c-25 36 -71 68 -97 68 -7 0 6 -13 28 -29 100 -72 144 -284 144 -680 0 -166
-13 -376 -23 -386 -2 -2 -41 19 -87 47 -92 56 -90 47 -22 97 l24 18 -33 30
-32 30 12 122 c28 268 -13 591 -85 671 -15 17 -15 25 1 104 l17 86 36 -6 c20
-3 47 -14 61 -23z m-2027 -107 c74 -19 140 -51 132 -65 -4 -5 10 -32 29 -59
20 -28 32 -50 27 -50 -5 0 -14 7 -22 16 -28 33 -94 56 -222 75 -73 10 -147 19
-164 19 -28 0 -33 3 -33 25 0 14 0 28 0 33 -2 23 171 27 253 6z m1114 -36 c-3
-7 -5 -2 -5 12 0 14 2 19 5 13 2 -7 2 -19 0 -25z m-1192 -64 c127 -21 155 -29
211 -66 59 -39 191 -172 218 -219 15 -26 6 -19 -41 29 -34 34 -67 62 -74 62
-7 0 13 -27 46 -60 33 -33 55 -60 50 -60 -6 1 -39 7 -75 15 -36 8 -80 14 -98
15 -39 0 -95 27 -180 88 -35 24 -65 42 -69 39 -3 -3 5 -21 18 -39 24 -33 23
-33 -41 13 -36 25 -77 49 -91 52 -22 6 -27 14 -33 53 -3 26 -6 59 -6 75 0 31
-11 31 165 3z m1652 -161 c35 -73 37 -159 5 -221 -18 -34 -27 -42 -43 -37 -25
8 -34 -15 -21 -52 l10 -28 1 33 c1 17 3 32 5 32 2 0 28 -13 57 -28 30 -15 73
-35 95 -43 35 -14 42 -22 48 -53 4 -20 2 -73 -5 -117 -11 -80 -12 -80 -38 -74
-14 3 -37 14 -51 24 -30 21 -87 131 -96 184 -4 20 -10 37 -15 37 -17 0 -149
113 -149 127 0 7 13 42 30 77 32 70 44 117 55 216 l8 65 38 -44 c21 -24 51
-68 66 -98z m181 -20 c25 -60 38 -112 47 -186 7 -58 -1 -137 -13 -137 -4 1
-18 24 -32 53 -26 55 -77 98 -114 96 -15 0 -9 -6 20 -19 23 -10 50 -31 62 -47
31 -44 64 -152 66 -215 1 -59 -10 -83 -35 -73 -11 4 -13 24 -10 90 2 55 -1 90
-8 99 -7 8 -42 26 -79 41 -92 37 -96 41 -75 76 10 16 20 29 23 29 3 0 6 8 7
18 5 88 9 99 44 130 20 18 42 45 49 62 7 16 16 30 20 30 4 0 17 -21 28 -47z
m-493 -124 c43 -43 46 -49 23 -40 -40 15 -53 6 -93 -59 -37 -61 -65 -91 -65
-71 0 8 -5 9 -19 2 -10 -6 -20 -9 -22 -8 -2 1 -3 0 -2 -2 2 -2 -4 -9 -13 -15
-13 -10 -12 -12 8 -11 12 0 29 4 37 9 21 14 2 -16 -21 -32 -11 -8 -17 -21 -15
-30 2 -10 -3 -29 -10 -44 -14 -29 -11 -33 52 -66 11 -6 20 -19 21 -29 0 -10 1
-30 2 -45 2 -21 11 -32 40 -47 34 -17 41 -17 91 -4 53 13 58 12 128 -13 40
-14 79 -24 87 -21 15 6 50 65 73 122 20 52 15 -5 -7 -77 -32 -105 -30 -104
-146 -85 -281 45 -329 59 -450 131 -109 64 -105 54 -53 132 60 89 125 169 223
271 44 46 80 83 81 83 0 0 23 -23 50 -51z m28 -98 c44 -30 177 -163 177 -178
1 -4 5 -28 9 -52 8 -40 -1 -166 -12 -178 -5 -4 -373 169 -385 182 -6 5 151
255 161 255 5 0 27 -13 50 -29z m-1003 9 c129 -14 154 -24 169 -65 6 -19 11
-38 10 -42 -5 -20 -151 27 -231 74 -82 48 -82 48 52 33z m1549 -159 c15 -11
47 -56 71 -101 24 -44 58 -97 75 -118 l33 -37 -32 -21 c-46 -31 -72 -37 -111
-24 -24 8 -37 20 -45 43 -6 18 -19 43 -29 56 -17 23 -18 27 -4 48 12 18 15 41
10 98 -3 41 -3 75 0 75 3 0 17 -9 32 -19z m-138 -211 c21 0 28 6 33 26 l7 27
23 -23 c30 -28 78 -134 74 -163 -2 -13 -11 -23 -23 -25 -25 -3 -224 93 -231
112 -3 8 0 32 6 55 l11 41 37 -25 c20 -14 49 -25 63 -25z m-3184 -327 c-3
-120 -10 -238 -16 -263 -15 -58 -77 -221 -109 -285 -31 -62 -40 -69 -127 -97
-38 -12 -74 -26 -79 -30 -6 -4 23 -8 63 -8 61 0 72 -2 67 -15 -13 -34 -87
-133 -134 -179 l-50 -48 -169 -2 c-172 -2 -280 -19 -348 -54 -16 -8 -79 -25
-140 -37 -103 -21 -107 -23 -70 -29 92 -16 89 -15 71 -35 -23 -26 -122 -77
-176 -91 -38 -11 -42 -14 -25 -21 11 -4 35 -8 53 -8 17 -1 32 -5 32 -9 0 -5
-16 -35 -35 -68 -39 -65 -96 -124 -120 -124 -20 0 -125 218 -125 259 0 4 37
33 83 63 189 127 367 313 526 551 46 69 78 97 111 97 11 0 -53 -163 -118 -301
-27 -59 -53 -116 -57 -128 l-7 -22 49 24 c94 49 199 132 323 256 69 69 141
147 160 174 38 53 50 56 140 32 66 -18 63 -17 55 -5 -4 6 -31 26 -61 45 l-54
35 51 77 c55 85 176 326 206 411 10 28 22 52 27 52 5 0 6 -94 3 -217z m2131
-81 c7 -5 14 -37 17 -78 l4 -69 -9 65 c-6 42 -15 69 -27 77 -18 14 -6 18 15 5z
m-2770 -154 c-17 -46 -33 -90 -35 -100 -4 -13 -43 -33 -49 -25 -2 3 107 207
111 207 2 0 -10 -37 -27 -82z m263 -165 c-21 -39 -173 -204 -256 -277 -71 -64
-212 -166 -227 -166 -2 0 13 35 34 78 21 42 62 135 90 205 29 71 61 133 70
138 25 13 174 37 241 38 52 1 57 -1 48 -16z m-115 -884 c28 -40 44 -74 44 -92
0 -41 -50 -198 -61 -191 -5 3 -30 46 -55 96 l-45 91 15 46 c23 70 47 124 52
118 3 -3 25 -33 50 -68z m3782 -6 c48 -5 53 -8 48 -27 -2 -12 -12 -61 -21
-111 -9 -49 -20 -103 -25 -120 -13 -41 -86 -555 -105 -735 -23 -224 -37 -532
-33 -740 1 -104 0 -186 -4 -182 -12 12 -28 160 -29 265 -1 56 -3 94 -6 85 -3
-12 -14 -18 -34 -18 -28 0 -29 -1 -29 -50 0 -49 1 -50 30 -50 29 0 30 -1 29
-47 0 -39 -2 -44 -9 -25 -14 34 -36 26 -54 -21 -18 -49 -20 -67 -6 -67 6 0 10
5 10 10 0 6 11 10 25 10 27 0 30 -8 39 -97 4 -42 2 -53 -9 -53 -8 0 -15 -7
-15 -15 0 -8 5 -15 11 -15 5 0 7 5 4 10 -3 6 -1 10 4 10 6 0 11 -12 11 -27 0
-16 3 -38 6 -50 l6 -23 -286 0 c-157 0 -287 3 -288 8 0 4 -2 18 -4 32 -2 14
-6 43 -9 65 -7 45 8 80 24 56 7 -11 10 -10 14 5 4 16 5 16 6 -3 1 -17 7 -23
24 -22 16 0 18 2 7 7 -8 4 -15 17 -14 29 1 15 -4 21 -17 20 -11 -1 -19 -5 -19
-9 0 -4 -5 -8 -11 -8 -5 0 -7 5 -4 10 3 6 1 10 -4 10 -6 0 -11 -10 -11 -22 0
-50 -11 -4 -19 83 -5 52 -12 106 -16 120 -6 24 -5 26 24 21 19 -2 31 0 31 7 0
6 -9 11 -20 11 -17 0 -20 7 -20 40 0 51 -20 53 -21 3 -2 -35 -2 -34 -9 12 -8
59 5 74 62 75 40 0 38 3 54 -99 4 -31 3 -42 -5 -37 -6 4 -11 26 -11 49 0 30
-3 38 -11 30 -18 -18 -2 -84 22 -90 26 -7 24 -31 -6 -59 -45 -42 -24 -104 36
-104 29 0 41 -22 19 -35 -5 -3 -10 -17 -10 -30 0 -18 4 -23 16 -18 9 3 20 0
25 -8 8 -12 10 -12 18 0 6 9 11 10 15 2 4 -6 18 -10 31 -9 27 3 39 32 24 60
-13 24 -4 38 27 38 30 0 32 17 2 22 -28 4 -36 28 -9 28 12 0 21 5 21 10 0 6
-9 10 -20 10 -11 0 -20 5 -20 10 0 6 9 10 19 10 29 0 35 18 9 22 -21 3 -23 7
-20 63 2 38 9 64 18 71 13 10 12 12 -1 18 -9 3 -15 14 -13 23 3 16 21 19 171
23 92 3 168 9 170 13 1 5 -73 8 -165 8 l-168 -2 0 25 c0 14 9 97 20 185 l21
160 62 123 c35 68 84 182 110 253 64 181 151 510 177 675 16 105 19 113 38
105 10 -4 41 -9 70 -12z m294 -233 c42 -231 26 -477 -40 -631 -22 -52 -99
-173 -131 -206 -26 -27 -86 -73 -95 -73 -4 0 1 12 12 28 77 109 171 364 197
538 18 114 24 382 13 509 l-7 70 14 -55 c8 -30 24 -111 37 -180z m-154 148
c55 -186 75 -441 47 -578 -34 -167 -147 -453 -165 -419 -17 31 -40 259 -40
395 0 146 4 178 66 514 30 164 29 160 52 160 15 0 24 -16 40 -72z m-4074 38
c-6 -16 -34 -30 -34 -18 0 10 22 32 32 32 4 0 5 -6 2 -14z m-480 -640 c24 -10
42 -31 70 -81 20 -37 35 -69 33 -71 -2 -2 -28 22 -58 52 -30 31 -44 51 -32 45
43 -22 37 -10 -9 19 -72 45 -75 66 -4 36z m3603 -38 c-3 -8 -6 -5 -6 6 -1 11
2 17 5 13 3 -3 4 -12 1 -19z m-36 -115 c-12 -20 -14 -14 -5 12 4 9 9 14 11 11
3 -2 0 -13 -6 -23z m800 -70 c-8 -14 -10 -9 -10 27 1 42 1 43 10 18 7 -18 7
-33 0 -45z m-14 -45 c-3 -8 -6 -5 -6 6 -1 11 2 17 5 13 3 -3 4 -12 1 -19z
m-847 -57 c-5 -11 -15 -23 -21 -27 -6 -3 -3 5 6 20 20 30 30 35 15 7z m7 -83
c-3 -8 -6 -5 -6 6 -1 11 2 17 5 13 3 -3 4 -12 1 -19z m-2927 -345 c163 -93
385 -195 708 -323 l92 -37 -132 -47 c-175 -62 -488 -218 -608 -303 -146 -105
-424 -392 -406 -421 3 -5 45 2 93 14 48 13 147 36 220 50 126 26 133 26 179
10 57 -19 214 -107 304 -170 36 -25 88 -73 116 -108 52 -62 52 -62 32 -80 -20
-17 -33 -22 -52 -19 -4 1 -19 -5 -32 -13 -62 -42 -328 -45 -494 -7 -47 10
-167 44 -266 75 -99 31 -201 59 -226 62 -73 10 -74 13 -50 91 36 112 88 329
119 485 l28 148 70 1 c39 0 79 4 90 9 20 8 20 9 -1 9 -12 1 -49 15 -83 33 -59
30 -62 34 -57 63 24 129 66 563 66 677 0 30 1 30 83 -48 60 -59 115 -98 207
-151z m3113 162 c-3 -9 -8 -14 -10 -11 -3 3 -2 9 2 15 9 16 15 13 8 -4z
m-3924 -80 c-2 -86 -8 -95 -33 -47 -12 24 -11 33 8 79 11 29 22 53 24 53 2 0
2 -38 1 -85z m3902 38 c-6 -10 -22 -31 -36 -48 -20 -23 -19 -18 6 18 32 46 49
63 30 30z m-837 -25 c14 -69 47 -280 44 -282 -1 -2 -41 3 -88 10 -47 7 -124
13 -172 13 -49 1 -88 4 -88 9 1 4 21 23 46 42 24 19 88 79 141 133 54 53 101
97 105 97 4 0 10 -10 12 -22z m896 -51 c0 -2 -10 -12 -22 -23 l-23 -19 19 23
c18 21 26 27 26 19z m-120 -10 c0 -2 -12 -14 -27 -28 l-28 -24 24 28 c23 25
31 32 31 24z m-65 -77 c-10 -11 -29 -19 -44 -19 l-26 2 27 4 c14 2 32 11 38
19 7 8 15 14 18 14 3 0 -3 -9 -13 -20z m155 -13 c0 -8 -7 -14 -15 -14 -11 0
-12 4 -4 14 6 7 13 13 15 13 2 0 4 -6 4 -13z m-220 -52 c-7 -9 -15 -13 -17
-11 -7 7 7 26 19 26 6 0 6 -6 -2 -15z m-67 -57 c-45 -50 -114 -101 -125 -90
-11 11 7 56 20 48 13 -8 104 65 110 87 6 22 7 22 10 -1 2 -13 -5 -33 -15 -44z
m817 -23 c0 -31 -3 -35 -25 -35 -32 0 -34 29 -2 31 l22 2 -22 4 c-32 6 -30 33
2 33 22 0 25 -4 25 -35z m-951 -91 c-7 -8 -21 -20 -32 -25 -17 -10 -16 -7 4
20 12 17 26 28 31 25 5 -3 3 -12 -3 -20z m-880 -17 c0 -9 -2 -9 -6 0 -3 9 -15
5 -39 -13 -37 -29 -37 -39 0 -46 21 -4 26 0 30 21 2 14 2 -22 0 -81 -5 -103 9
-261 42 -486 17 -116 13 -142 -20 -142 -12 0 -33 -11 -46 -25 -14 -15 -35 -25
-51 -25 -15 0 -41 -11 -57 -25 -20 -17 -42 -25 -66 -25 -30 0 -44 -7 -70 -36
-32 -35 -35 -36 -69 -25 -28 9 -41 9 -58 1 -23 -13 -39 -1 -39 31 0 68 -94
239 -131 239 -29 0 -128 -102 -189 -196 -47 -73 -55 -80 -98 -91 -66 -18 -75
-17 -63 6 14 25 65 45 98 37 24 -7 25 -6 13 9 -8 10 -23 15 -37 12 -13 -2 -29
3 -38 13 -13 15 -13 22 6 76 15 43 22 94 26 189 6 149 -6 266 -43 392 -13 47
-23 87 -22 88 2 1 91 -20 198 -47 270 -67 300 -66 468 20 68 34 128 59 133 56
5 -3 8 -1 7 4 -3 12 103 91 115 85 4 -2 7 -10 6 -16z m-2688 -149 c11 -4 11
-19 1 -94 -23 -162 -117 -617 -163 -786 -5 -21 -17 -39 -28 -43 -11 -3 -58
-30 -105 -60 l-86 -54 -58 87 c-32 48 -69 104 -81 125 l-23 38 27 62 c15 34
64 139 108 232 102 219 182 421 209 533 l22 89 82 -62 c44 -34 87 -64 95 -67z
m4047 93 c3 -27 0 -32 -15 -29 -19 3 -28 30 -19 54 10 26 31 10 34 -25z m447
9 c3 -5 1 -10 -4 -10 -6 0 -11 5 -11 10 0 6 2 10 4 10 3 0 8 -4 11 -10z m39
-328 c7 -12 49 -303 44 -307 -2 -3 -38 7 -78 22 -102 35 -243 42 -375 18 -53
-9 -99 -14 -103 -11 -7 8 -50 269 -45 278 5 10 551 9 557 0z m-1184 -117 c24
-60 114 -253 157 -335 4 -8 -136 -52 -267 -86 -128 -32 -269 -39 -295 -13 -16
15 -11 29 65 178 61 122 95 177 138 223 59 63 152 131 164 120 3 -4 21 -43 38
-87z m-1230 -255 c14 -90 9 -144 -19 -199 -23 -45 -98 -124 -111 -116 -9 6
-40 -21 -40 -35 0 -5 5 -12 10 -15 6 -4 0 -15 -15 -27 -45 -35 -56 -70 -52
-161 l4 -82 -30 63 c-16 35 -32 83 -34 106 -5 42 -4 43 46 75 28 18 51 37 51
41 0 11 -29 22 -75 26 -39 4 -56 13 -110 58 l-29 25 49 21 c86 37 99 37 113
-2 15 -41 38 -75 46 -67 4 3 -3 27 -14 53 -23 54 -24 60 -10 51 6 -3 7 1 4 9
-12 32 156 256 193 256 6 0 16 -36 23 -80z m550 -45 c-7 -8 -17 -15 -23 -15
-6 0 -2 7 9 15 25 19 30 19 14 0z m-934 -27 c4 -6 -9 -25 -31 -45 -29 -26 -40
-31 -46 -21 -13 20 -11 27 16 53 26 27 50 32 61 13z m862 -15 c-9 -2 -20 -13
-23 -24 -7 -21 -30 -26 -40 -8 -10 15 25 39 55 38 16 -1 19 -3 8 -6z m-812
-25 c4 -7 2 -14 -6 -16 -8 -3 -24 -16 -37 -30 -14 -16 -28 -22 -39 -18 -15 6
-12 12 16 41 36 37 54 43 66 23z m722 -24 l37 -16 -30 -13 c-16 -7 -34 -11
-40 -9 -5 2 -17 -7 -25 -20 l-15 -24 -24 19 -24 20 28 29 c33 35 42 36 93 14z
m-144 -67 c22 -12 41 -29 43 -37 4 -13 3 -13 -6 0 -9 12 -17 9 -49 -23 -26
-26 -42 -35 -47 -27 -4 6 -25 24 -47 40 l-40 29 34 21 c42 25 64 25 112 -3z
m-99 -87 c21 -22 36 -42 33 -46 -4 -3 -38 -11 -77 -17 -53 -8 -80 -7 -111 2
-47 14 -51 26 -13 36 15 3 45 20 67 36 22 16 45 29 51 29 6 0 28 -18 50 -40z
m-487 -100 c21 -25 32 -48 32 -69 0 -17 9 -57 21 -89 30 -82 32 -92 23 -92 -5
0 -20 37 -34 83 -13 45 -41 118 -62 162 -21 44 -32 71 -25 61 6 -11 27 -36 45
-56z m203 37 c-8 -8 -11 -7 -11 4 0 20 13 34 18 19 3 -7 -1 -17 -7 -23z m1172
-71 c76 -43 136 -79 135 -80 -2 -1 -33 0 -69 2 l-66 4 -79 80 c-43 44 -74 79
-68 77 6 -2 72 -40 147 -83z m-834 37 c-14 -16 -55 -61 -92 -101 -38 -40 -103
-118 -146 -172 l-79 -98 -26 27 c-46 48 -35 76 71 170 58 50 101 81 115 81 13
0 56 26 98 59 85 67 94 72 59 34z m-2998 -142 c-6 -37 -9 -46 -11 -26 -1 17
-4 23 -7 15 -3 -8 -13 -23 -21 -33 -12 -13 -17 -15 -24 -5 -4 7 -8 -25 -8 -72
l0 -85 -49 0 c-45 0 -48 1 -41 21 13 32 99 202 128 253 l26 45 7 -29 c5 -15 4
-53 0 -84z m5652 64 c-3 -9 -8 -14 -10 -11 -3 3 -2 9 2 15 9 16 15 13 8 -4z
m-3694 -67 c-12 -18 -24 -35 -26 -38 -7 -8 -133 -16 -133 -9 0 7 145 70 178
78 2 1 -7 -14 -19 -31z m3668 0 c-3 -8 -6 -5 -6 6 -1 11 2 17 5 13 3 -3 4 -12
1 -19z m-2222 -122 c41 -51 75 -97 74 -102 0 -5 -18 -24 -39 -42 l-38 -33 -33
20 c-31 19 -32 21 -35 103 -2 46 -8 98 -13 116 -5 18 -6 32 -1 32 5 0 43 -42
85 -94z m-1333 -25 l-3 -80 -65 -40 c-36 -23 -68 -41 -71 -41 -4 0 -17 10 -29
21 l-23 22 91 98 c50 55 94 99 97 99 3 0 5 -36 3 -79z m492 14 c-4 -8 -10 -15
-15 -15 -5 0 -9 7 -9 15 0 8 7 15 15 15 9 0 12 -6 9 -15z m61 -66 c43 -38 61
-95 45 -144 -16 -50 -29 -56 -75 -40 -24 8 -68 12 -108 11 -76 -4 -87 4 -87
66 0 72 70 138 147 138 33 0 50 -7 78 -31z m-2708 -51 c-3 -8 -6 -5 -6 6 -1
11 2 17 5 13 3 -3 4 -12 1 -19z"/>
<path d="M5371 1823 c1 -26 3 -40 6 -30 5 21 43 23 43 2 0 -8 4 -15 9 -15 5 0
9 19 8 43 -2 40 -4 42 -34 45 l-33 3 1 -48z m54 22 c0 -5 -10 -11 -22 -13 -16
-2 -23 2 -23 13 0 11 7 15 23 13 12 -2 22 -7 22 -13z"/>
<path d="M5466 1830 c-19 -48 -20 -58 -4 -42 15 15 48 16 48 2 0 -5 4 -10 9
-10 6 0 3 20 -6 45 -8 25 -18 45 -23 45 -4 0 -15 -18 -24 -40z m34 -6 c0 -8
-4 -14 -10 -14 -5 0 -10 9 -10 21 0 11 5 17 10 14 6 -3 10 -13 10 -21z"/>
<path d="M5532 1863 c12 -3 18 -17 21 -46 l4 -42 1 42 c2 30 7 43 20 46 9 3
-1 5 -23 5 -22 0 -32 -2 -23 -5z"/>
<path d="M5380 1665 l0 -55 40 0 c22 0 40 5 40 10 0 6 -11 10 -25 10 -23 0
-25 4 -25 45 0 33 -4 45 -15 45 -12 0 -15 -13 -15 -55z"/>
<path d="M5480 1666 c0 -31 5 -56 10 -56 6 0 10 9 10 20 0 13 7 20 20 20 13 0
20 -7 20 -20 0 -11 6 -20 14 -20 11 0 14 13 13 53 l-2 52 -42 3 -43 3 0 -55z
m60 18 c0 -9 -7 -14 -17 -12 -25 5 -28 28 -4 28 12 0 21 -6 21 -16z"/>
<path d="M5378 1545 c2 -14 6 -25 8 -25 2 0 4 11 4 25 0 14 -4 25 -9 25 -4 0
-6 -11 -3 -25z"/>
<path d="M5410 1559 c0 -6 8 -18 18 -26 16 -14 16 -14 0 -9 -10 3 -18 1 -18
-4 0 -13 27 -13 35 1 4 6 -2 19 -14 30 -12 11 -21 15 -21 8z"/>
<path d="M5481 1544 c-6 -15 -9 -29 -6 -32 3 -3 5 0 5 6 0 16 27 15 34 0 3 -7
3 -2 0 12 -10 39 -19 43 -33 14z"/>
<path d="M5530 1555 c0 -8 4 -15 10 -15 5 0 7 7 4 15 -4 8 -8 15 -10 15 -2 0
-4 -7 -4 -15z"/>
<path d="M5556 1548 c-3 -13 -1 -27 4 -32 7 -7 10 1 10 22 0 37 -5 41 -14 10z"/>
<path d="M5580 1539 c0 -26 3 -30 22 -27 24 3 36 34 21 49 -6 6 -9 1 -9 -12 1
-12 -5 -24 -13 -27 -10 -3 -13 2 -9 22 3 14 1 26 -3 26 -5 0 -9 -14 -9 -31z"/>
<path d="M5336 1525 c4 -8 10 -12 15 -9 11 6 2 24 -11 24 -5 0 -7 -7 -4 -15z"/>
<path d="M5239 1486 c-4 -4 -3 -21 0 -39 9 -42 44 -46 49 -4 2 15 7 27 12 27
5 0 13 -12 18 -27 l10 -28 1 32 c1 17 -3 34 -8 37 -18 11 -41 -6 -41 -30 0
-36 -28 -30 -32 7 -2 17 -6 28 -9 25z"/>
<path d="M5107 1462 c1 -8 3 -15 3 -17 0 -2 9 -1 19 2 13 3 21 -1 24 -14 3
-10 5 -2 5 17 0 19 -2 29 -5 23 -5 -14 -39 -18 -46 -5 -2 4 -2 1 0 -6z"/>
<path d="M5177 1473 c-10 -9 -9 -41 2 -47 4 -3 6 6 3 19 -3 18 0 25 11 25 22
0 31 -18 17 -35 -8 -10 -9 -15 -2 -15 13 0 26 36 17 50 -7 11 -38 13 -48 3z"/>
<path d="M5370 1450 c0 -16 5 -30 10 -30 6 0 9 14 8 30 -1 17 -6 30 -10 30 -4
0 -8 -13 -8 -30z"/>
<path d="M5403 1463 c0 -8 6 -12 14 -9 8 3 13 -2 13 -14 0 -11 5 -20 11 -20 5
0 7 5 3 11 -3 6 0 15 7 20 12 7 11 9 -1 10 -10 0 -8 3 5 9 16 7 12 8 -16 8
-23 -1 -36 -6 -36 -15z"/>
<path d="M5480 1448 c0 -36 11 -31 15 7 2 14 -1 25 -6 25 -5 0 -9 -14 -9 -32z"/>
<path d="M5515 1455 c4 -38 15 -43 15 -7 0 18 -4 32 -9 32 -5 0 -8 -11 -6 -25z"/>
<path d="M5541 1448 c0 -28 2 -30 9 -13 12 28 12 45 0 45 -5 0 -10 -15 -9 -32z"/>
<path d="M5586 1462 c-4 -12 -12 -20 -17 -17 -10 7 -13 -8 -3 -18 11 -10 36
22 32 41 -3 14 -5 13 -12 -6z"/>
<path d="M5610 1450 c0 -16 5 -30 10 -30 6 0 10 14 10 30 0 17 -4 30 -10 30
-5 0 -10 -13 -10 -30z"/>
<path d="M5640 1430 c0 -5 5 -10 11 -10 5 0 7 5 4 10 -3 6 -8 10 -11 10 -2 0
-4 -4 -4 -10z"/>
<path d="M5833 6383 c-49 -140 -168 -325 -284 -442 -65 -65 -76 -79 -49 -65
77 42 197 184 273 324 44 81 89 200 76 200 -5 0 -12 -8 -16 -17z"/>
<path d="M4955 6290 c49 -49 92 -90 95 -90 2 0 -36 41 -85 90 -49 50 -92 90
-95 90 -2 0 36 -40 85 -90z"/>
<path d="M454 6293 c3 -16 8 -46 11 -68 8 -54 -12 -390 -29 -492 -11 -67 -11
-86 -1 -100 12 -16 15 -11 28 37 9 30 19 70 23 89 3 19 13 42 22 50 14 14 15
13 9 -10 -15 -60 -19 -101 -8 -94 15 9 14 4 -9 -51 -32 -74 -16 -62 23 18 43
86 82 219 90 303 6 58 6 57 -13 -24 -11 -46 -23 -87 -26 -90 -4 -3 -4 5 0 19
16 60 29 211 19 221 -7 7 -12 0 -17 -25 -4 -20 -10 -36 -15 -36 -14 0 -31 -76
-31 -144 0 -43 -4 -66 -11 -66 -9 0 -10 20 -4 73 15 138 0 329 -31 388 -19 37
-37 38 -30 2z"/>
<path d="M35 5835 c44 -28 41 -34 -5 -10 -45 23 -36 -1 11 -31 50 -31 238
-108 246 -100 3 3 -5 10 -18 15 -73 28 -199 93 -194 100 3 5 -11 18 -31 30
-49 29 -58 26 -9 -4z"/>
<path d="M0 5498 c0 -35 58 -179 100 -251 21 -36 22 -41 10 -119 -14 -90 -8
-284 11 -381 10 -49 9 -67 -5 -115 -9 -31 -32 -122 -51 -202 -18 -80 -41 -165
-49 -189 -19 -53 -21 -95 -4 -85 8 5 9 2 4 -12 -4 -10 -9 -86 -11 -169 l-4
-150 13 130 c28 263 82 520 167 796 54 177 174 510 209 579 46 93 44 110 -4
25 -25 -44 -64 -127 -87 -184 l-42 -104 -24 29 c-79 96 -135 194 -190 338 -19
50 -37 93 -39 95 -2 2 -4 -11 -4 -31z m191 -440 c1 -18 5 -44 9 -58 7 -21 8
-18 9 20 1 33 4 41 11 30 16 -25 12 -50 -27 -168 -22 -68 -40 -109 -46 -103
-12 12 -22 296 -13 346 l7 38 25 -36 c13 -20 24 -51 25 -69z"/>
<path d="M1375 5500 c-9 -16 -13 -30 -11 -30 3 0 12 14 21 30 9 17 13 30 11
30 -3 0 -12 -13 -21 -30z"/>
<path d="M4221 3814 c-39 -27 -116 -53 -193 -64 -106 -16 -153 -34 -253 -95
-50 -30 -95 -55 -100 -55 -6 0 -16 -9 -22 -19 -10 -16 -10 -20 3 -23 14 -3 13
-7 -5 -30 -31 -39 -26 -44 14 -14 51 39 211 113 280 131 99 24 235 37 325 30
71 -5 222 -35 268 -52 6 -3 12 2 12 10 0 8 7 17 15 21 29 11 15 23 -40 35 -62
14 -77 28 -41 37 13 3 33 15 43 27 18 20 17 20 -2 12 -11 -4 -86 -10 -167 -13
-130 -4 -148 -3 -148 11 0 9 4 19 10 22 10 6 34 45 28 45 -2 0 -14 -7 -27 -16z"/>
<path d="M3664 3724 c-26 -24 -28 -28 -8 -12 17 12 40 28 50 35 11 6 14 12 8
12 -6 1 -28 -15 -50 -35z"/>
<path d="M5601 3044 c0 -11 3 -14 6 -6 3 7 2 16 -1 19 -3 4 -6 -2 -5 -13z"/>
<path d="M3609 2581 c-25 -15 -80 -69 -123 -120 -79 -93 -125 -135 -161 -144
-11 -3 0 -3 25 0 161 20 335 114 375 202 39 86 -25 120 -116 62z m109 -9 c8
-56 -45 -120 -136 -166 -61 -30 -181 -70 -189 -62 -4 3 -1 6 4 6 6 0 49 44 94
97 46 53 104 109 129 125 54 34 93 34 98 0z"/>
<path d="M2888 2309 c13 -5 56 -11 95 -14 l72 -4 -80 14 c-94 16 -119 17 -87
4z"/>
<path d="M1100 1733 c0 -10 58 -66 90 -86 16 -10 30 -13 39 -8 11 7 9 14 -10
34 -38 40 -119 81 -119 60z"/>
<path d="M5356 225 c52 -98 134 -225 145 -225 5 0 2 15 -7 32 -10 18 -23 53
-30 78 -11 40 -12 42 -13 15 -1 -27 -6 -23 -54 52 -75 118 -82 127 -41 48z"/>
<path d="M6150 286 c0 -2 7 -7 16 -10 8 -3 12 -2 9 4 -6 10 -25 14 -25 6z"/>
<path d="M6205 250 c10 -11 20 -20 23 -20 3 0 -3 9 -13 20 -10 11 -20 20 -23
20 -3 0 3 -9 13 -20z"/>
<path d="M1428 91 c-35 -44 -64 -78 -66 -77 -1 2 2 16 8 31 6 15 9 30 6 32 -2
2 -9 -12 -16 -32 -13 -40 -7 -54 16 -40 16 10 128 165 120 165 -3 0 -33 -36
-68 -79z"/>
<path d="M2914 15 c-19 -14 -19 -14 2 -15 12 0 24 7 28 15 7 19 -5 19 -30 0z"/>
</g>
</svg>
